PathFileType	4	(X/Y/Z)	S01_Demo_SingleTrial_0-100.trc
DataRate	CameraRate	NumFrames	NumMarkers	Units	OrigDataRate	OrigDataStartFrame	OrigNumFrames
60	60	7	21	m	60	87	100
Frame#	Time	RHip			RKnee			RAnkle			RBigToe			RSmallToe			RHeel			LHip			LKnee			LAnkle			LBigToe			LSmallToe			LHeel			Neck			Head			Nose			RShoulder			RElbow			RWrist			LShoulder			LElbow			LWrist		
		X1	Y1	Z1	X2	Y2	Z2	X3	Y3	Z3	X4	Y4	Z4	X5	Y5	Z5	X6	Y6	Z6	X7	Y7	Z7	X8	Y8	Z8	X9	Y9	Z9	X10	Y10	Z10	X11	Y11	Z11	X12	Y12	Z12	X13	Y13	Z13	X14	Y14	Z14	X15	Y15	Z15	X16	Y16	Z16	X17	Y17	Z17	X18	Y18	Z18	X19	Y19	Z19	X20	Y20	Z20	X21	Y21	Z21
88	1.4666666666666666	-0.08066485487301067	0.904700276013193	-0.7132811890154676	-0.09174233895146451	0.5027922645974041	-0.6958480903591727	-0.050178841109128305	0.13538048258262944	-0.7518306598179425	-0.05439703811761676	0.03758197540206037	-0.6031427216968025	-0.09114519718888393	0.03566486721535672	-0.6385120888384952	-0.03361777041179989	0.10239685153007884	-0.7997194915797695	0.1343161468233903	0.8891937641255784	-0.7240512005104939	0.08799974062607122	0.5069212048853806	-0.6830961579910846	0.05102852045873398	0.22551235341129208	-0.946225193299147	0.027584903925357444	0.104606101756967	-0.8651546813856907	0.07228165257847217	0.12528676261637872	-0.905604463798311	0.0392085374866605	0.20554907684678914	-1.0209656335059762	-0.03417598513304252	1.4150493069621584	-0.6283908351876709	-0.0513242450941438	1.6334775320882953	-0.419464451138419	-0.04339722908197639	1.4857411041619226	-0.4311148778399905	-0.19597431290474257	1.393334597634127	-0.6159876719112367	-0.40386371140904065	1.2202432770162563	-0.6740457124616632	-0.49979480849237384	1.238402636152468	-0.42703796148150264	0.11634066435630765	1.4211920350572784	-0.7665033619796318	0.3450758557979817	1.3870632008573736	-0.7528309442639842	0.5959846137330279	1.2594302595923212	-0.7513444082685184
89	1.4833333333333334	-0.07594414760813512	0.9047995275066927	-0.707586793945225	-0.0907758317139613	0.5014977224111563	-0.69293967303728	-0.05076868851418965	0.13821226883639354	-0.7476534288425425	-0.05482021664842015	0.03768178296664833	-0.6034622946439888	-0.09318663156834579	0.03675027730747194	-0.6412047377685169	-0.033452218042927535	0.10632875518526244	-0.7991640413919318	0.13810940882006592	0.8904545633650627	-0.7199759257708052	0.08711279598904609	0.5112107370909028	-0.6753372977250387	0.05928627956767131	0.22340884908345446	-0.9103814520495855	0.035259439495830824	0.09984747451154644	-0.8387342281029292	0.08336120432621028	0.12638427514914718	-0.8674769124965309	0.04925969396718841	0.201252622473586	-0.9786504025586863	-0.04222617113271673	1.4148899812677365	-0.614627742934055	-0.07017052913938797	1.6295862621579114	-0.4051425857923478	-0.05653794693889783	1.4808567664759038	-0.417029843774555	-0.2022898310896472	1.3849420600685838	-0.6113563342125685	-0.4038892747081187	1.2046725052394882	-0.6676873415976201	-0.5118058895848144	1.2174467767667774	-0.42375505608416425	0.1100717383404575	1.4258782843846365	-0.7516204485914191	0.3396540040687777	1.4101850862489471	-0.718236054387512	0.5853879420815505	1.3087573605142564	-0.752033972818499
90	1.5	-0.07243115238199219	0.9049245946341035	-0.7040653586992858	-0.08991771167269948	0.5014496022489162	-0.6876066501016492	-0.05171387224595105	0.14035034954877626	-0.7426321080063949	-0.05489745413662147	0.03808680834866717	-0.6041164783422054	-0.09493076324359234	0.03769479958518773	-0.6442034250415537	-0.03358871736380587	0.10919393439293629	-0.7977433258974657	0.13918993923299658	0.8926867342192423	-0.7214105752346153	0.08442750611091124	0.5147501259229215	-0.6727009617758096	0.06585399070159839	0.21990589134075722	-0.8759140432240823	0.04118704274069211	0.09489324152044952	-0.8084839310429017	0.09001797790937177	0.12579916947466707	-0.8238713324512207	0.057704099491858944	0.19599765080688603	-0.9380916395210325	-0.04950732604750766	1.4139107508496738	-0.6021587565671169	-0.08668072629409343	1.6255705475788522	-0.3925905592484285	-0.06761676279158722	1.4746420852181459	-0.4052865640356398	-0.20786623215841707	1.3760855278719188	-0.6123521166407454	-0.4025794048603453	1.1901301496108998	-0.6602100178845003	-0.5206746628933142	1.1965709535777964	-0.422295784764517	0.10453499352056524	1.429379595358139	-0.7360411554664157	0.33692722230509975	1.4271066059826707	-0.6897170233050844	0.5692888139256451	1.3594681635032067	-0.7495022010454989
91	1.5166666666666666	-0.06953800986322092	0.9049622249642587	-0.702386473564467	-0.08892049786880996	0.5021901583198973	-0.6803387386815626	-0.05256321974423968	0.14202041434955556	-0.7370008173276659	-0.054829351774158624	0.039209759166163614	-0.6043985529105206	-0.0966050119337938	0.038890471721055656	-0.6473168911325401	-0.033697701000415387	0.1108051292222784	-0.7959480078257395	0.13730215578755597	0.896460447363006	-0.7292201108691421	0.08202413102685913	0.5174333315223902	-0.6698146263612719	0.0708989671943748	0.21552744086389716	-0.8426657962725319	0.04511625046855083	0.09220870169452787	-0.7711427987096777	0.09163487155502881	0.12346668461821159	-0.7787481987622475	0.06428986439593197	0.19008787263070745	-0.9021014702776401	-0.05618640769407595	1.412031025001906	-0.5910751384389583	-0.1010551552943483	1.6211914670059342	-0.38123529290095587	-0.07657975425978313	1.467627689738296	-0.3957318611422619	-0.2127711608110583	1.367269055081363	-0.6176619848420143	-0.4004262127572517	1.177009160810593	-0.6528848145046597	-0.526275276554333	1.175484726264101	-0.4218856775875062	0.09999814991956656	1.4317127337740785	-0.7188509328818102	0.33483442687279263	1.4390219618779547	-0.6754504272349557	0.553029264372431	1.4074477760374546	-0.7371406273848252
92	1.5333333333333334	-0.06698091112515388	0.9049086058134346	-0.7017180622294948	-0.08769882080623588	0.5032650067389961	-0.6720829332538307	-0.05267523347650041	0.14341656270333783	-0.7309909021803699	-0.055022072882180265	0.04113714209417525	-0.6039613795341059	-0.09828695083142809	0.04044787739265258	-0.6501059456736324	-0.03327483104083959	0.111021068360693	-0.7940894615570603	0.1327083470954808	0.9016826510399178	-0.7426140508288315	0.0813689102438713	0.519401631501818	-0.662236675145562	0.07468935499958562	0.21039848418127108	-0.8097443910300839	0.04709658664900456	0.093984132531688	-0.7238497509038131	0.08942709028278684	0.12014923860397808	-0.73304395434416	0.06935451080787385	0.18305218027030612	-0.8704472952824204	-0.06233411049494334	1.4094812492128315	-0.5812017117427578	-0.11339311674875976	1.616539544726072	-0.37060705954302126	-0.08387782223178139	1.4607780008298592	-0.38737808580110206	-0.21661907047201737	1.359267251226111	-0.6241907425378124	-0.39791498277100673	1.1655060337604835	-0.647049473036602	-0.5287734796521854	1.15455810319107	-0.42186331318674153	0.0969139785187236	1.4332087916399825	-0.6990993807838175	0.3332603404289455	1.4478138785985037	-0.674213238101009	0.5421733558590195	1.4487304625593698	-0.7082297814539391
93	1.55	-0.06490366243879074	0.904809292650315	-0.7009552726257058	-0.08665178924145604	0.5043491628994056	-0.6641093534702257	-0.051674148904881936	0.14454636723076544	-0.7251152804355308	-0.0558934513143437	0.04351779171077041	-0.6030281387111209	-0.09978376382390794	0.04213916678797435	-0.6520932699747226	-0.031934593142065364	0.10985718502770739	-0.7922529926508072	0.12666074774483735	0.907397294074912	-0.7577915374725533	0.08266447163350678	0.5208889575400225	-0.6484322350496483	0.07772622558766289	0.20437140889558608	-0.7757909023645221	0.0470229853396495	0.10174116146994451	-0.6652969866888792	0.08578786671228539	0.11750299814998982	-0.6851245931299713	0.07352663676462469	0.17424248648354634	-0.8400906125560691	-0.06794452423286652	1.406716253140276	-0.5721728967943873	-0.12363281026140782	1.6121394855033926	-0.36083140741650555	-0.09019892065710872	1.4551077140434907	-0.3793194780232889	-0.2189590824755444	1.3528639114915961	-0.6286235406431532	-0.39538952259601956	1.1557599397710225	-0.643621994277044	-0.528785183335718	1.134801471852778	-0.42200141238699407	0.09526932825085312	1.4344270577943072	-0.6768844159770612	0.3338972157086149	1.4544384259319183	-0.6784711514364222	0.5379122731983257	1.4813003892750878	-0.6625272561012123
94	1.5666666666666669	-0.0635164042980377	0.9046824168179024	-0.699198062932507	-0.08633540800211781	0.50528485993496	-0.6572742854990188	-0.04979611575314529	0.14533902967646567	-0.7203214271514243	-0.05766257721806987	0.045847754981043314	-0.6023214370290052	-0.10075664083524268	0.04367590424539615	-0.6531648771616004	-0.029738774253916175	0.10773811223023472	-0.7905512015608519	0.12097344751586159	0.9123851828408702	-0.7692717944099985	0.08510972696533316	0.5222301388259545	-0.6294853060320172	0.08049512939025177	0.19721397164599552	-0.739765793289042	0.044514869862985286	0.11520041545436042	-0.597893098170242	0.08312369569922629	0.11777892374617431	-0.6330315619186205	0.07758073716052227	0.1637142607506125	-0.806780600777008	-0.07296726906359291	1.4042807508304718	-0.5636248813598277	-0.13173377094451708	1.608607058588444	-0.35219355869414415	-0.09611815676847285	1.4513425632180217	-0.37102428743761573	-0.21992817299553521	1.348414833194942	-0.6295240476056372	-0.3929436426833199	1.1478492436237147	-0.6427905626945072	-0.5271123628984085	1.1172475287129346	-0.422663820067289	0.09425144984320682	1.4358443679498112	-0.6540750067472405	0.33844138714658156	1.4594561277584615	-0.6790408433550312	0.5361714446509128	1.5053780750535244	-0.6075527785070804
